# xmcd
#
# Track frame offsets:
#	150
#	15170
#	30615
#	47919
#	59203
#	73521
#	88505
#	109398
#	126032
#	143438
#	156896
#	170574
#
# Disc length: 2473 seconds
#
# Revision: 1
# Processed by: cddbd v1.5.2PL0 Copyright (c) Steve Scherf et al.
# Submitted via: audiograbber 1.83.01
#
DISCID=9f09a70c
DTITLE=Tenille Arts - Love, Heartbreak, and Everything in Between
DYEAR=2020
DGENRE=Country
TTITLE0=Somebody Like That
TTITLE1=Slow It Down
TTITLE2=Wild Love
TTITLE3=Butterfly Effect
TTITLE4=I Hate This
TTITLE5=Nothing to See Here
TTITLE6=Another Life
TTITLE7=Right Guy Wrong Time
TTITLE8=Call You Names
TTITLE9=Missing You
TTITLE10=Wouldn't You Like to Know
TTITLE11=Everybody Knows Everybody
EXTD=
EXTT0=
EXTT1=
EXTT2=
EXTT3=
EXTT4=
EXTT5=
EXTT6=
EXTT7=
EXTT8=
EXTT9=
EXTT10=
EXTT11=
PLAYORDER=
